<?xml version="1.0" encoding="utf-8"?>
<svg xmlns:xlink="http://www.w3.org/1999/xlink" version="1.1" id="Layer_1" xmlns="http://www.w3.org/2000/svg" x="0px"
     y="0px"
     width="604.5px" height="93.7px" viewBox="0 0 604.5 93.7" style="enable-background:new 0 0 604.5 93.7;"
     xml:space="preserve">
<style type="text/css">
	.st0 {fill:#0291d3}
	.st1 {fill:none}
	.st2 {fill:#ffffff}
	.st3 {fill:#2b2b2b}
	@media print {.st0 {fill:#2b2b2b}}
</style>
    <g>
	<g>
		<g>
			<g>
				<path class="st0" d="M60,90H4c-1.8,0-3.4-1.5-3.4-3.4c0-1.8,1.5-3.3,3.4-3.3H60c1.8,0,3.3,1.5,3.3,3.3C63.4,88.5,61.9,90,60,90z
					"/>
			</g>
		</g>
        <g>
			<path class="st0" d="M63.4,5.7c0,0.9-0.7,1.6-1.6,1.6h-3.4c-0.9,0-1.6-0.7-1.6-1.6V2.3c0-0.9,0.7-1.6,1.6-1.6h3.4
				c0.9,0,1.6,0.7,1.6,1.6V5.7z"/>
		</g>
        <g>
			<path class="st0" d="M7.3,5.7c0,0.9-0.7,1.6-1.6,1.6H2.2c-0.9,0-1.6-0.7-1.6-1.6V2.4c0-0.9,0.7-1.6,1.6-1.6h3.4
				c0.9,0,1.6,0.7,1.6,1.6V5.7z"/>
		</g>
        <g>
			<path class="st0" d="M3.9,54.1c-1.8,0-3.3-1.5-3.3-3.3V13.2c0-1.8,1.5-3.3,3.3-3.3c1.8,0,3.3,1.5,3.3,3.3v37.6
				C7.3,52.6,5.8,54.1,3.9,54.1z"/>
		</g>
        <g>
			<path class="st0" d="M60.1,54.1c-1.8,0-3.3-1.5-3.3-3.3V13.2c0-1.8,1.5-3.3,3.3-3.3c1.8,0,3.3,1.5,3.3,3.3v37.6
				C63.4,52.6,61.9,54.1,60.1,54.1z"/>
		</g>
        <g>
			<path class="st0" d="M50.8,7.4H13.2c-1.8,0-3.3-1.5-3.3-3.3s1.5-3.3,3.3-3.3h37.6c1.8,0,3.3,1.5,3.3,3.3
				C54.1,5.9,52.6,7.4,50.8,7.4z"/>
		</g>
        <g>
			<path class="st0" d="M63.4,58.3c0-0.9-0.7-1.6-1.6-1.6h-3.4c-0.9,0-1.6,0.7-1.6,1.6v3.4c0,0.9,0.7,1.6,1.6,1.6h3.4
				c0.9,0,1.6-0.7,1.6-1.6V58.3z"/>
		</g>
        <g>
			<path class="st0" d="M7.3,58.3c0-0.9-0.7-1.6-1.6-1.6H2.3c-0.9,0-1.6,0.7-1.6,1.6v3.4c0,0.9,0.7,1.6,1.6,1.6h3.4
				c0.9,0,1.6-0.7,1.6-1.6V58.3z"/>
		</g>
        <g>
			<path class="st0" d="M50.8,56.7H13.2c-1.8,0-3.3,1.5-3.3,3.3c0,1.8,1.5,3.3,3.3,3.3h37.6c1.8,0,3.3-1.5,3.3-3.3
				C54.1,58.1,52.6,56.7,50.8,56.7z"/>
		</g>
        <g>
			<g>
				<path class="st0" d="M51,53.9c-0.8,0-1.6-0.3-2.2-0.9l-38-37.8C9.6,14,9.6,12,10.8,10.7c1.2-1.3,3.2-1.3,4.4-0.1l38,37.8
					c1.2,1.2,1.2,3.2,0.1,4.5C52.6,53.6,51.8,53.9,51,53.9z"/>
			</g>
            <g>
				<path class="st0" d="M13,53.9c-0.8,0-1.6-0.3-2.2-1c-1.2-1.3-1.2-3.3,0.1-4.5l38-37.8c1.2-1.2,3.2-1.2,4.4,0.1
					c1.2,1.3,1.2,3.3-0.1,4.5L15.2,53C14.6,53.6,13.8,53.9,13,53.9z"/>
			</g>
		</g>
	</g>
        <g>
		<path class="st0" d="M95.5,85.5c0-3.2,2.6-5.8,6.1-5.8c3.5,0,6,2.6,6,5.8c0,3.2-2.6,5.8-6.1,5.8C98,91.3,95.5,88.8,95.5,85.5z
			 M104.4,85.5c0-1.6-1.2-3.1-2.9-3.1c-1.8,0-2.9,1.4-2.9,3.1c0,1.6,1.2,3.1,2.9,3.1C103.4,88.6,104.4,87.2,104.4,85.5z"/>
            <path class="st0" d="M111.1,84.7c0-3.4,0.5-6.9,4.7-7.7l6-1.1l0.5,2.5l-6.1,1.2c-2.1,0.4-2.6,1.6-2.7,2.6c0.4-0.7,1.8-1.9,4.1-1.9
			c2.8,0,5.3,2.3,5.3,5.4c0,3.1-2.5,5.6-5.9,5.6C113.2,91.3,111.1,89,111.1,84.7z M119.7,85.7c0-1.6-1.2-2.9-2.7-2.9
			c-1.6,0-2.7,1.3-2.7,2.9c0,1.6,1.2,2.9,2.7,2.9C118.6,88.6,119.7,87.3,119.7,85.7z"/>
            <path class="st0" d="M131.6,83.6h2.3c2.6,0,4.5,1.2,4.5,3.7c0,2.4-1.6,3.8-4.3,3.8h-5.6v-8.5h-2.9v-2.7h6.1L131.6,83.6L131.6,83.6
			z M131.6,86v2.6h2c1,0,1.6-0.5,1.6-1.3c0-0.8-0.5-1.2-1.6-1.2L131.6,86L131.6,86z"/>
            <path class="st0" d="M141.2,85.5c0-3.2,2.3-5.8,5.5-5.8c3.7,0,5.4,2.9,5.4,6.1c0,0.2,0,0.5,0,0.8h-7.8c0.3,1.4,1.3,2.2,2.7,2.2
			c1.1,0,1.8-0.3,2.7-1.1l1.8,1.6c-1,1.3-2.5,2.1-4.6,2.1C143.6,91.3,141.2,89,141.2,85.5z M149,84.6c-0.2-1.4-1-2.4-2.4-2.4
			c-1.3,0-2.2,0.9-2.4,2.4H149z"/>
            <path class="st0" d="M157.7,91.1l-0.2,2.6h-2.7v-5.3h1.2c0.9-2,1.1-4.8,1.1-7.5v-1h9.1v8.5h1.5l-0.4,5.3h-2.7v-2.6H157.7z
			 M163,88.4v-5.8h-3v0.2c0,1.9-0.1,3.9-0.8,5.5L163,88.4L163,88.4z"/>
            <path class="st0" d="M181.4,91.1h-3.1v-6.5l-4.3,6.5h-3V79.9h3.1v6.5l4.4-6.5h3V91.1z"/>
            <path class="st0" d="M196.1,91.1h-3.2v-4.3H189v4.3h-3.2V79.9h3.2v4.3h3.9v-4.3h3.2V91.1z"/>
            <path class="st0" d="M210.3,91.1h-3.2v-3.6h-1.7l-2.4,3.6h-3.7l2.9-4.1c-1.4-0.5-2.3-1.6-2.3-3.3c0-2.2,1.6-3.7,4.5-3.7h5.9
			L210.3,91.1L210.3,91.1z M207.2,85.2v-2.8H205c-1.1,0-1.8,0.5-1.8,1.4c0,0.9,0.7,1.4,1.9,1.4L207.2,85.2L207.2,85.2z"/>
            <path class="st0" d="M224.6,91.1h-3.2v-3.6h-1.7l-2.4,3.6h-3.7l2.9-4.1c-1.4-0.5-2.3-1.6-2.3-3.3c0-2.2,1.6-3.7,4.5-3.7h5.9
			L224.6,91.1L224.6,91.1z M221.5,85.2v-2.8h-2.2c-1.1,0-1.8,0.5-1.8,1.4c0,0.9,0.7,1.4,1.9,1.4L221.5,85.2L221.5,85.2z"/>
            <path class="st0" d="M239.7,83.4c0,1.2,0.5,1.8,1.5,1.8c0.9,0,1.5-0.2,2.2-0.5v-4.8h3.2v11.2h-3.2v-3.9c-0.8,0.4-1.9,0.7-3,0.7
			c-2.2,0-3.9-1.3-3.9-3.6v-4.4h3.2V83.4z"/>
            <path class="st0" d="M250.4,87.8c0-2.4,1.9-3.6,4.5-3.6c1.1,0,1.9,0.2,2.7,0.5v-0.2c0-1.3-0.8-2-2.4-2c-1.2,0-2.1,0.2-3.1,0.6
			l-0.8-2.4c1.2-0.5,2.4-0.9,4.3-0.9c1.7,0,3,0.5,3.8,1.2c0.8,0.8,1.2,2.1,1.2,3.6v6.5h-3.1v-1.2c-0.8,0.9-1.8,1.4-3.4,1.4
			C252.1,91.3,250.4,90.1,250.4,87.8z M257.6,87.2v-0.6c-0.5-0.2-1.2-0.4-2-0.4c-1.4,0-2.2,0.5-2.2,1.6c0,0.9,0.7,1.4,1.7,1.4
			C256.6,89.1,257.6,88.3,257.6,87.2z"/>
            <path class="st0" d="M264.4,85.5c0-3.2,2.4-5.8,5.9-5.8c2.1,0,3.4,0.8,4.4,2l-1.9,1.9c-0.7-0.6-1.4-1.1-2.6-1.1
			c-1.6,0-2.7,1.4-2.7,3.1c0,1.7,1.1,3.1,2.8,3.1c1.1,0,1.8-0.5,2.6-1.2l1.9,1.9c-1.1,1.2-2.3,2-4.6,2
			C266.8,91.3,264.4,88.8,264.4,85.5z"/>
            <path class="st0" d="M277.4,85.5c0-3.2,2.6-5.8,6.1-5.8c3.5,0,6,2.6,6,5.8c0,3.2-2.6,5.8-6.1,5.8C280,91.3,277.4,88.8,277.4,85.5z
			 M286.4,85.5c0-1.6-1.2-3.1-2.9-3.1c-1.8,0-2.9,1.4-2.9,3.1c0,1.6,1.2,3.1,2.9,3.1C285.3,88.6,286.4,87.2,286.4,85.5z"/>
            <path class="st0" d="M299.5,79.9c2.2,0,3.7,1,3.7,2.8c0,1.4-0.8,2.1-1.8,2.5c1.4,0.4,2.2,1.2,2.2,2.8c0,1.9-1.6,3-4.2,3h-6.1V79.9
			H299.5z M298.7,84.4c0.9,0,1.3-0.5,1.3-1.1c0-0.5-0.4-1-1.3-1h-2.3v2.1L298.7,84.4L298.7,84.4z M299,88.6c1,0,1.4-0.5,1.4-1.1
			c0-0.6-0.4-1.1-1.5-1.1h-2.4v2.2H299z"/>
            <path class="st0" d="M307.4,79.9h3.2v3.7h2.3c2.6,0,4.5,1.2,4.5,3.7c0,2.4-1.6,3.8-4.3,3.8h-5.6L307.4,79.9L307.4,79.9z M310.6,86
			v2.6h2c1,0,1.6-0.5,1.6-1.3c0-0.8-0.5-1.2-1.6-1.2L310.6,86L310.6,86z M318.8,79.9h3.2v11.2h-3.2V79.9z"/>
            <path class="st0" d="M325.8,85.5c0-3.2,2.3-5.8,5.5-5.8c3.7,0,5.4,2.9,5.4,6.1c0,0.2,0,0.5,0,0.8H329c0.3,1.4,1.3,2.2,2.7,2.2
			c1.1,0,1.8-0.3,2.7-1.1l1.8,1.6c-1,1.3-2.5,2.1-4.6,2.1C328.3,91.3,325.8,89,325.8,85.5z M333.7,84.6c-0.2-1.4-1-2.4-2.4-2.4
			c-1.3,0-2.2,0.9-2.4,2.4H333.7z"/>
            <path class="st0" d="M358.7,91.1h-3.2v-8.5h-3.8v8.5h-3.2V79.9h10.1L358.7,91.1L358.7,91.1z"/>
            <path class="st0" d="M362.5,85.5c0-3.2,2.6-5.8,6.1-5.8c3.5,0,6,2.6,6,5.8c0,3.2-2.6,5.8-6.1,5.8
			C365.1,91.3,362.5,88.8,362.5,85.5z M371.5,85.5c0-1.6-1.2-3.1-2.9-3.1c-1.8,0-2.9,1.4-2.9,3.1c0,1.6,1.2,3.1,2.9,3.1
			C370.4,88.6,371.5,87.2,371.5,85.5z"/>
            <path class="st0" d="M388.4,91.1h-3.2v-3.6h-1.7l-2.4,3.6h-3.7l2.9-4.1c-1.4-0.5-2.3-1.6-2.3-3.3c0-2.2,1.6-3.7,4.5-3.7h5.9
			L388.4,91.1L388.4,91.1z M385.2,85.2v-2.8H383c-1.1,0-1.8,0.5-1.8,1.4c0,0.9,0.7,1.4,1.9,1.4L385.2,85.2L385.2,85.2z"/>
            <path class="st0" d="M392.2,85.5c0-3.2,2.4-5.8,5.9-5.8c2.1,0,3.4,0.8,4.4,2l-1.9,1.9c-0.7-0.6-1.4-1.1-2.6-1.1
			c-1.6,0-2.7,1.4-2.7,3.1c0,1.7,1.1,3.1,2.8,3.1c1.1,0,1.8-0.5,2.6-1.2l1.9,1.9c-1.1,1.2-2.3,2-4.6,2
			C394.7,91.3,392.2,88.8,392.2,85.5z"/>
            <path class="st0" d="M405.6,87.8c0-2.4,1.9-3.6,4.5-3.6c1.1,0,1.9,0.2,2.7,0.5v-0.2c0-1.3-0.8-2-2.4-2c-1.2,0-2.1,0.2-3.1,0.6
			l-0.8-2.4c1.2-0.5,2.4-0.9,4.3-0.9c1.7,0,3,0.5,3.8,1.2c0.8,0.8,1.2,2.1,1.2,3.6v6.5h-3.1v-1.2c-0.8,0.9-1.8,1.4-3.4,1.4
			C407.3,91.3,405.6,90.1,405.6,87.8z M412.8,87.2v-0.6c-0.5-0.2-1.2-0.4-2-0.4c-1.4,0-2.2,0.5-2.2,1.6c0,0.9,0.7,1.4,1.7,1.4
			C411.8,89.1,412.8,88.3,412.8,87.2z"/>
	</g>
        <g>
		<g>
			<polygon class="st0" points="115.3,26.9 106.1,26.9 106.5,26.9 114.2,26.9 			"/>
		</g>
	</g>
        <g>
		<g>
			<polygon class="st0" points="307.7,63 314.5,40.5 321.2,63 330.5,63 319.1,28.8 318.9,28.1 310.1,28.1 309.8,28.8 298.5,63 			
				"/>
		</g>
	</g>
        <g>
		<g>
			<line class="st1" x1="185.1" y1="16.5" x2="185" y2="16.5"/>
		</g>
	</g>
        <g>
		<g>
			<polygon class="st0" points="255.4,27.9 245,27.9 233.2,39.5 233.2,27.9 224.4,27.9 224.4,62.9 233.2,62.9 233.2,51.5 
				235.5,48.9 247.1,62.9 257.9,62.9 241.5,42.2 			"/>
		</g>
	</g>
        <g>
		<g>
			<path class="st0" d="M166.1,27.9l0,3.3c0,0-0.1-0.1-0.1-0.1c-3.3-4.1-9.3-4.1-9.4-4.1c-0.2,0-0.3,0-0.3,0
				c-8.1-0.1-14.3,5.4-16.6,12.8c-0.6,1.8-0.9,3.6-0.9,5.6c0,0.2,0,0.5,0,0.7c0.4,9.7,8.1,17.5,17.7,17.6c2.5,0,6-0.6,8.1-2.6v0
				c0,0,0.8-0.7,1.4-1.7l0,3.3h9.2V45.3V27.9H166.1z M156.8,27L156.8,27C156.8,27,156.8,27,156.8,27C156.8,27,156.8,27,156.8,27z
				 M166.1,49.7c-0.1,0.2-0.2,0.4-0.3,0.6c-1.7,3.3-5.1,5.5-8.9,5.5c-2.3,0-4.5-0.8-6.2-2.2c-2-1.8-3.4-4.4-3.5-7.4
				c0-0.2,0-0.4,0-0.6c0-1.8,0.5-3.6,1.3-5.1c1.7-3.3,5.1-5.5,8.9-5.5c2.3,0,4.5,0.8,6.2,2.2c1.1,1,2,2.2,2.6,3.6
				c0.5,1.2,0.9,2.5,0.9,3.8c0,0.2,0,0.4,0,0.6C167.1,46.8,166.7,48.3,166.1,49.7z"/>
		</g>
	</g>
        <g>
		<g>
			<path class="st0" d="M283.6,28.2l0,3.3c0,0-0.1-0.1-0.1-0.1c-3.3-4.1-9.3-4.1-9.3-4.1c-0.2,0-0.3,0-0.3,0
				c-8.1-0.1-14.2,5.3-16.5,12.7c-0.5,1.8-0.8,3.6-0.8,5.6c0,0.2,0,0.5,0,0.7c0.4,9.7,8.1,17.4,17.6,17.6c2.5,0,6-0.6,8-2.6v0
				c0,0,0.8-0.7,1.4-1.7l0,3.3h9.2V45.5V28.1L283.6,28.2L283.6,28.2z M274.3,27.3L274.3,27.3C274.3,27.3,274.3,27.3,274.3,27.3
				C274.3,27.3,274.3,27.3,274.3,27.3z M283.6,49.9c-0.1,0.2-0.2,0.4-0.3,0.6c-1.7,3.3-5.1,5.5-8.9,5.5c-2.3,0-4.4-0.8-6.1-2.2
				c-2-1.8-3.4-4.4-3.5-7.4c0-0.2,0-0.4,0-0.6c0-1.8,0.5-3.6,1.2-5.1c1.7-3.3,5.1-5.5,8.9-5.5c2.3,0,4.4,0.8,6.2,2.2
				c1.1,1,2,2.2,2.6,3.5c0.5,1.2,0.9,2.5,0.9,3.8c0,0.2,0,0.4,0,0.6C284.6,47,284.2,48.5,283.6,49.9z"/>
		</g>
	</g>
        <path class="st0" d="M133.6,44.1c-0.2-5.6-3.2-10.6-7.7-13.8c-4.5-3.7-11.2-3.6-11.2-3.6l-1.1,0h-7.7h-0.4v-0.1V15.8H127V7H96.7
		v0.3h0v8.3v47.1h1.7H115c0.3,0,0.8,0,1.2-0.1v0c7.8-0.6,14.2-5.6,16.5-12.4c0.6-1.7,0.9-3.6,0.9-5.5
		C133.6,44.6,133.6,44.3,133.6,44.1z M122.4,49.3c-1.4,2.4-3.9,4.1-6.9,4.7h-10V35.6l7.5-0.1h2.3c0.3,0,0.5,0.1,0.8,0.2
		c1.4,0.3,2.7,0.9,3.8,1.7c2.1,1.6,3.5,4,3.7,6.7c0,0.2,0,0.4,0,0.6C123.7,46.3,123.2,47.9,122.4,49.3z"/>
        <path class="st0" d="M217.2,61.7c0-0.1,0-0.2-0.1-0.3c0-0.1,0-0.2,0-0.2c0,0,0,0,0,0c0-0.1,0-0.1,0-0.1l0,0
		c-0.3-1.9-0.4-5.5-0.5-8.7v-7.5V27.4h-7.2h-2.1h0v4.1v2.7v1.7v4.3V45c0,0,0,0.3,0,0.9c0,0,0,0.1,0,0.1c0,0,0,0,0,0
		c-0.1,1.4-0.4,4-1.5,5.7c-1.5,2-3.8,3.4-6.5,3.4c-0.2,0-0.5,0-0.7,0c-1.4-0.1-2.7-0.6-3.8-1.4c-1.5-1-2.7-2.6-3.2-4.4
		c0,0,0,0,0-0.1c-0.2-0.6-0.4-2-0.5-3v0c0,0,0,0,0,0c0-0.5-0.1-0.8-0.1-0.8l0,0c-0.5-7,0-17.9,0-17.9l-0.3-0.1H182
		c0,3.4,0.1,16.3,0,18.5c0.1,2.1,0.4,5.4,1.4,8.4c0.5,1.2,1.1,2.4,1.9,3.6l0,0c0.2,0.2,0.3,0.5,0.5,0.7c0.2,0.2,0.5,0.5,0.6,0.7
		c1.1,1.1,2.5,2.1,4.1,2.8c0,0,0.1,0,0.1,0c0.7,0.3,2.9,1.2,6.4,1.2c0.5,0,0.8,0,1.2-0.1c0,0,6,0.1,9.5-4.8c0.1,1.3,0.3,3.3,1,4h8.5
		C217.3,62.2,217.2,61.9,217.2,61.7z"/>
        <g>
		<g>
			<g>
				<path class="st2"
                      d="M519.5,47.9C519.5,47.9,519.5,47.9,519.5,47.9C519.5,47.9,519.5,47.9,519.5,47.9L519.5,47.9z"/>
			</g>
		</g>
            <g>
			<g>
				<path class="st2" d="M515.5,47.3"/>
			</g>
		</g>
            <path class="st3" d="M584.5,50.8c-1.8,3.3-5,5.3-8.5,5.3c-5.2,0-9.5-4.3-9.8-9.9l0-0.2c0-0.2,0-0.3,0-0.5c0-1.8,0.4-3.5,1.2-5.1
			c1.7-3.4,5-5.5,8.6-5.5c3.5,0,6.8,2.1,8.6,5.4l0.1,0.3l7.7-3.1l-0.1-0.3c-3-6.8-9.6-11.1-16.7-11.1c-8.1,0-15.1,5.4-17.5,13.4
			c-0.6,1.9-0.9,3.9-0.9,5.8c0,0.2,0,0.5,0,0.7c0.4,10.4,8.5,18.5,18.4,18.5c7,0,13.3-4.1,16.5-10.7l0.2-0.3l-7.6-3.1L584.5,50.8z"
            />
            <g>
			<g>
				<path class="st3" d="M431.9,26.3C431.9,26.3,431.9,26.3,431.9,26.3C431.9,26.3,431.9,26.3,431.9,26.3z"/>
			</g>
		</g>
            <path class="st3" d="M425.8,29.6c-0.3-0.2-0.7-0.5-1-0.7c-0.1-0.1-0.2-0.1-0.2-0.1c-0.2-0.1-0.4-0.2-0.6-0.4l-0.3-0.1
			c-0.4-0.2-0.8-0.4-1.1-0.5c-0.1-0.1-0.2-0.1-0.4-0.2c-0.2-0.1-0.4-0.2-0.6-0.2c-0.1-0.1-0.3-0.1-0.4-0.1l-0.1,0
			c-0.3-0.1-0.6-0.2-0.9-0.3c-0.2-0.1-0.4-0.1-0.6-0.2c-0.2,0-0.4-0.1-0.5-0.1c-0.2-0.1-0.5-0.1-0.8-0.1c-0.2,0-0.4-0.1-0.5-0.1
			c-0.3,0-0.6-0.1-0.9-0.1c-0.1,0-0.3,0-0.4,0c-0.4,0-0.7,0-1.1,0h-0.1c-0.5,0-0.9,0-1.5,0.1l-0.2,0c-0.4,0-0.8,0.1-1.2,0.2
			l-0.3,0.1c-0.4,0.1-0.8,0.2-1.1,0.2l-0.3,0.1c-0.4,0.1-0.8,0.2-1.2,0.4l-0.2,0.1c-0.4,0.1-0.8,0.3-1.3,0.5c-4,1.8-7.3,5-9.2,9.1
			l-0.1,0.3l0,0c-0.4,0.8-0.7,1.6-0.9,2.4c-0.6,1.9-0.9,3.9-0.9,5.8c0,0.2,0,0.5,0,0.7c0.1,1.6,0.3,3.2,0.8,4.7l0.1,0.4
			c0.2,0.7,0.5,1.5,0.9,2.3c0.1,0.1,0.1,0.3,0.2,0.4l0.2,0.3c0.4,0.7,0.8,1.5,1.3,2.2l0.1,0.2c0.5,0.7,0.9,1.3,1.5,1.9l0.1,0.2
			c0.2,0.2,0.4,0.4,0.5,0.6l0.1,0.1c0.3,0.3,0.7,0.7,1.1,1c0.1,0.1,0.1,0.1,0.2,0.2c0.2,0.2,0.4,0.3,0.6,0.5l0.2,0.1
			c0.4,0.3,0.7,0.5,1.1,0.8l0.3,0.2c0.2,0.1,0.4,0.2,0.6,0.4l0.3,0.1c0.4,0.2,0.7,0.4,1.1,0.5c0.1,0.1,0.2,0.1,0.4,0.2
			c0.2,0.1,0.4,0.2,0.6,0.2c0.2,0.1,0.3,0.1,0.5,0.2c0.3,0.1,0.6,0.2,0.9,0.3c0.2,0.1,0.4,0.1,0.6,0.2c0.2,0.1,0.4,0.1,0.5,0.1
			c0.2,0.1,0.5,0.1,0.8,0.1c0.2,0,0.4,0.1,0.5,0.1c0.3,0,0.6,0.1,0.9,0.1c0.1,0,0.3,0,0.4,0c0.4,0,0.7,0,1.2,0.1h0
			c0.5,0,0.9,0,1.5-0.1l0.2,0c0.4,0,0.8-0.1,1.2-0.2l0.3-0.1c0.4-0.1,0.8-0.2,1.1-0.2l0.3-0.1c0.4-0.1,0.8-0.2,1.1-0.4l0.2-0.1
			c0.4-0.2,0.8-0.3,1.2-0.5l0.1,0c4-1.8,7.3-5,9.2-9.1l0.2-0.3l-8.3-3.5l-0.2,0.3c-1.8,3.2-5,5.2-8.5,5.2c-1.3,0-2.6-0.3-3.8-0.8
			c-3-1.7-4.6-3.6-5.1-6.3h26.4l0-0.3C432.9,45.3,433.2,35.1,425.8,29.6z M424.2,41.6h-17.5c0.1-0.4,0.3-0.7,0.5-1.1
			c1.7-3.4,5-5.5,8.6-5.5c1.3,0,2.6,0.3,3.8,0.8C421.6,37.1,423.3,39.1,424.2,41.6z"/>
            <path class="st3" d="M384.9,45.5l-0.2,0.3c-3,5.5-8,8.8-13.5,8.8c-8.8,0-16-8.5-16-18.9s7.2-18.9,16-18.9
			c6.5,0,12.3,4.6,14.8,11.6l0.1,0.4l9.2-3.9l-0.1-0.3c-4.1-10.8-13.5-17.8-24-17.8c-14.4,0-26.1,13-26.1,28.9s11.7,28.9,26.1,28.9
			c9.2,0,17.8-5.5,22.5-14.3h0l0.3-0.6l0,0l0,0L384.9,45.5z"/>
            <path class="st3" d="M474.4,40c-2.6-8.2-9.3-13.5-17.3-13.5h-0.2c0,0-0.1,0-0.3,0c0,0-0.1,0-0.1,0c-0.1,0-5.8,0-9.3,3.8l0-2.9
			h-10.2v56.8h10.2l0-22.7c0.5,0.5,0.9,0.9,0.9,0.9l0,0c2.4,2.3,6.3,2.7,8.5,2.7c10.1-0.2,18.3-8.3,18.6-18.6c0-0.2,0-0.5,0-0.7
			C475.2,43.9,474.9,41.9,474.4,40z M449.7,37.7c1.8-1.4,3.9-2.2,6.2-2.2c3.7,0,7.1,2.1,8.9,5.5c0.8,1.5,1.3,3.3,1.3,5.1
			c0,0.1,0,0.3,0,0.4l0,0.2c-0.2,2.9-1.4,5.5-3.5,7.4c-1.8,1.4-3.9,2.2-6.2,2.2c-3.7,0-7.1-2.1-8.9-5.5c-0.1-0.2-0.2-0.4-0.3-0.6
			c-0.6-1.4-1-2.9-1-4.5c0-0.1,0-0.3,0-0.4l0-0.2c0.1-1.3,0.4-2.6,0.9-3.8C447.8,39.8,448.6,38.6,449.7,37.7z"/>
            <path class="st3" d="M513.6,51.3L513.6,51.3c-0.1-2.4-0.9-4.3-2.6-5.9l-0.1-0.1c-0.6-0.6-1.4-1.2-2.2-1.8c0.2-0.2,0.4-0.5,0.6-0.8
			c1.7-1.5,2.7-3.6,2.7-5.7c0-4.2-4.2-8.5-9-9.2c-1.4-0.1-2.5-0.1-3-0.1c-0.3,0-0.4,0-0.4,0L480,27.7v35.6h9.6l4.7-0.1h7.3
			c5.2-0.4,9.8-3.6,11.4-8c0.4-1.1,0.6-2.3,0.6-3.5C513.6,51.5,513.6,51.4,513.6,51.3z M503.7,52.7c-0.1,1.6-1.4,2.8-2.6,3.1
			c-0.2,0-0.4,0.1-0.6,0.1c-0.9,0.2-1.9,0.2-2.6,0.2h-2.5c-1,0-1.9,0-2.8,0h-2.5v-8.4h2.5c0.8,0,1.8,0,2.8,0l2.2,0
			c0.3,0,2,0,3.3,0.3l0.1,0c0.1,0,0.1,0,0.2,0c0.1,0,0.2,0.1,0.4,0.1l0,0l0,0l0,0l0,0l0,0l0.1,0.1c0.1,0.1,0.2,0.1,0.3,0.2
			c1.1,0.6,1.8,1.7,1.8,2.7v0.1c0,0.2,0,0.6,0,0.6S503.7,52.6,503.7,52.7z M501.2,40.2c-0.8,0.3-1.2,0.4-1.4,0.4l-1.6,0
			c-0.4,0-0.7,0-0.7,0l-0.8,0l-6.8,0v-5.9l10,0c0.1,0,0.5,0.1,1,0.3c1,0.5,1.8,1.6,1.8,2.5C502.7,38.9,502.3,39.7,501.2,40.2z"/>
            <path class="st3" d="M554.1,63c-0.1-0.2-0.1-0.4-0.2-0.6c0-0.1,0-0.2-0.1-0.3l-0.1-0.4c-0.3-2-0.4-5.8-0.5-8.6V27.8h-10v18
			c0,0,0,0.3,0,0.8l0,0.1c-0.1,1.4-0.4,3.9-1.4,5.5c-1.5,2-3.8,3.2-6.2,3.2c-0.2,0-0.4,0-0.7,0c-1.3-0.1-2.6-0.6-3.6-1.3
			c-1.5-1-2.5-2.5-3.1-4.2l0-0.1c-0.2-0.5-0.3-1.5-0.5-2.8l0-0.1c0-0.3,0-0.5-0.1-0.7l0,0l0-0.2c-0.5-6.9,0-17.7,0-17.8l0-0.4H518
			v0.4c0,6,0.1,16.5,0,18.5c0.1,2.2,0.4,5.6,1.4,8.5c0.6,1.4,1.2,2.6,2,3.6c0.2,0.2,0.4,0.5,0.6,0.7c0.2,0.2,0.4,0.5,0.6,0.7
			c1.2,1.2,2.6,2.2,4.3,2.9l0.1,0c0.8,0.4,3.1,1.2,6.4,1.2h0.1c0.5,0,0.8,0,1.2-0.1c0.2,0,5.6-0.1,9.2-4.2c0.2,1.7,0.5,2.8,1,3.3
			l0.1,0.1h9.2L554.1,63z"/>
	</g>
        <path class="st0" d="M204.9,18L204.9,18L204.9,18c-1.2,1.5-3.1,2.7-5.3,2.7c-2.4,0.1-4.6-1.1-5.8-2.8l-4.6,2.5
		c1.7,4.1,5.9,6.9,10.7,6.7c4.5-0.2,8.2-2.9,9.8-6.5L204.9,18z"/>
        <path class="st3" d="M598,29c-3.6,0-6.5-2.9-6.5-6.5c0-3.6,2.9-6.5,6.5-6.5c3.6,0,6.5,2.9,6.5,6.5S601.6,29,598,29z M598,17.3
		c-2.9,0-5.2,2.3-5.2,5.2c0,2.9,2.3,5.2,5.2,5.2s5.2-2.3,5.2-5.2C603.2,19.6,600.9,17.3,598,17.3z"/>
        <path class="st3" d="M600.7,25c-0.1-0.2-0.2-0.6-0.2-1l0-0.2c0-0.4-0.1-0.9-0.5-1.3c0.4-0.3,0.6-0.8,0.6-1.3c0-1.1-0.8-1.8-2.1-1.8
		h-2.9v6h1.5v-2.3h1c0.8,0,0.9,0.2,1,0.9l0,0.2c0,0.5,0.1,0.8,0.2,1.1l0.1,0.1h1.7L600.7,25z M597.1,20.8h1.2c0.8,0,0.9,0.2,0.9,0.6
		c0,0.5-0.3,0.6-1,0.6h-1L597.1,20.8L597.1,20.8z"/>
</g>
</svg>
