<?xml version="1.0" encoding="UTF-8"?>
<svg xmlns:xlink="http://www.w3.org/1999/xlink" width="476px" height="76px" viewBox="0 0 476 76" version="1.1"
     xmlns="http://www.w3.org/2000/svg">
    <!-- Generator: Sketch 52.6 (67491) - http://www.bohemiancoding.com/sketch -->
    <title>logo_eps</title>
    <desc>Created with Sketch.</desc>
    <g id="logo_eps" stroke="none" stroke-width="1" fill="none" fill-rule="evenodd">
        <path d="M135.538167,65.8272667 L148.902015,65.8272667 L151.992973,60.4459874 L135.538167,60.4459874 L135.538167,65.8272667 Z M240.24312,60.6455869 L229.834364,60.6455869 L229.834364,55.3977033 L240.24312,55.3977033 C241.920469,55.3977033 243.131277,55.7969021 243.131277,57.9895313 C243.131277,59.7157698 242.395002,60.6455869 240.24312,60.6455869 Z M229.834364,46.5609828 L239.300048,46.5609828 C240.711658,46.5609828 241.319061,47.2921885 241.319061,48.6883963 C241.319061,50.1488316 240.376988,50.8820136 239.300048,50.8820136 L229.834364,50.8820136 L229.834364,46.5609828 Z M244.39803,51.405715 C245.96349,50.7417012 247.296178,49.6903458 247.296178,47.0273735 C247.296178,41.9781012 242.997409,41.3822673 239.973385,41.3822673 L223.990115,41.3822673 L223.990115,65.8272667 L240.24312,65.8272667 C247.695785,65.8272667 249.242263,61.7750033 249.242263,58.0537588 C249.242263,53.8651355 246.838628,52.1309921 244.39803,51.405715 Z M293.638569,65.8272667 L307.002417,65.8272667 L310.094374,60.4459874 L293.638569,60.4459874 L293.638569,65.8272667 Z M135.538167,50.8820136 L135.538167,56.2603285 L154.408595,56.2603285 L157.566487,50.8820136 L135.538167,50.8820136 Z M269.591236,60.6455869 L260.930759,60.6455869 L260.930759,55.1971158 L269.591236,55.1971158 C270.600243,55.1971158 272.143724,55.4639071 272.143724,57.9203632 C272.143724,60.1791962 270.871976,60.6455869 269.591236,60.6455869 Z M269.926906,50.1488316 L260.930759,50.1488316 L260.930759,41.3822673 L255.018578,41.3822673 L255.018578,65.8272667 L269.864967,65.8272667 C273.890005,65.8272667 278.055905,63.6346375 278.055905,57.8571238 C278.055905,50.2812392 272.681195,50.1488316 269.926906,50.1488316 Z M281.076932,65.8272667 L286.922179,65.8272667 L286.922179,41.3822673 L281.076932,41.3822673 L281.076932,65.8272667 Z M170.326929,41.3822673 L156.156875,65.8272667 L163.140002,65.8272667 L172.475814,49.6844171 L181.87856,65.8272667 L189.197357,65.8272667 L175.027303,41.3822673 L170.326929,41.3822673 Z M204.041748,60.7779944 C198.333366,60.7779944 195.915745,57.5231406 195.915745,53.5370811 C195.915745,49.1537989 198.670035,46.2289758 204.041748,46.2289758 C210.089796,46.2289758 212.16775,49.1537989 212.16775,53.5370811 C212.16775,58.7859527 208.206649,60.7779944 204.041748,60.7779944 Z M204.11068,40.7834691 C194.236398,40.7834691 189.536024,46.7615703 189.536024,53.4698892 C189.536024,60.4459874 194.101531,66.1592736 204.11068,66.1592736 C208.476383,66.1592736 218.551468,64.1662438 218.551468,53.4698892 C218.551468,46.4967552 214.049898,40.7834691 204.11068,40.7834691 Z M101.608559,60.4459874 L110.944371,44.3041261 L120.348116,60.4459874 L101.608559,60.4459874 Z M113.563793,36 L108.727553,36 L94.5584978,60.4459874 L91,60.4459874 L91,73 L96.6374518,73 L96.6374518,65.8272667 L125.651897,65.8272667 L125.651897,73 L131.294344,73 L131.294344,60.4459874 L127.734847,60.4459874 L113.563793,36 Z M163.072069,41.3822673 L135.538167,41.3822673 L135.538167,46.7615703 L159.916175,46.7615703 L163.072069,41.3822673 Z M293.638569,50.8820136 L293.638569,56.2603285 L312.509997,56.2603285 L315.665891,50.8820136 L293.638569,50.8820136 Z M321.172471,41.3822673 L293.638569,41.3822673 L293.638569,46.7615703 L318.018575,46.7615703 L321.172471,41.3822673 Z M464.763154,41.3822673 L450.789906,57.2583255 L450.789906,41.3822673 L444.880722,41.3822673 L444.880722,65.8272667 L449.85083,65.8272667 L464.089817,49.8188009 L464.089817,65.8272667 L470,65.8272667 L470,41.3822673 L464.763154,41.3822673 Z M328.429329,41.3822673 L314.256278,65.8272667 L321.240405,65.8272667 L330.578215,49.6844171 L339.979962,65.8272667 L347.303754,65.8272667 L333.129703,41.3822673 L328.429329,41.3822673 Z M400.419479,50.8820136 L387.456237,50.8820136 L387.456237,41.3822673 L381.546054,41.3822673 L381.546054,65.8272667 L387.456237,65.8272667 L387.456237,56.2603285 L400.419479,56.2603285 L400.419479,65.8272667 L406.330661,65.8272667 L406.330661,41.3822673 L400.419479,41.3822673 L400.419479,50.8820136 Z M418.955237,57.2583255 L418.955237,41.3822673 L413.045053,41.3822673 L413.045053,65.8272667 L418.013164,65.8272667 L432.25215,49.8188009 L432.25215,65.8272667 L438.163333,65.8272667 L438.163333,41.3822673 L432.924489,41.3822673 L418.955237,57.2583255 Z M355.621568,57.1249299 L355.621568,41.3822673 L349.707388,41.3822673 L349.707388,65.8272667 L354.681493,65.8272667 L368.918481,49.9502203 L368.918481,65.8272667 L374.829664,65.8272667 L374.829664,41.3822673 L369.861553,41.3822673 L355.621568,57.1249299 Z"
              id="Fill-5" fill="#1A1919"></path>
        <path d="M46.9245587,54.0238174 L18.932362,41.9533576 L12.9899457,52.2097254 L44.4826608,58.2424744 L46.9245587,54.0238174 Z M43.0246924,66 L52.3341791,66 L60.5143379,51.8832286 L68.692505,66 L78,66 L60.5143379,35.8144228 L43.0246924,66 Z M11.5996971,54.6123057 L5,66 L39.9882541,66 L43.0904205,60.6440622 L11.5996971,54.6123057 Z M58.9956209,33.1945088 L41.5009959,3 L34.8933317,14.4055574 L55.8884751,38.5573933 L58.9956209,33.1945088 Z M54.4972306,40.9619583 L33.5010914,16.8051604 L27.5646504,27.0565663 L52.053341,45.1786305 L54.4972306,40.9619583 Z M50.7298164,47.455177 L26.2371422,29.3460139 L20.2558866,39.6708568 L48.250075,51.7433014 L50.7298164,47.455177 Z"
              id="Fill-6" fill="#EFA72D"></path>
    </g>
</svg>