<?xml version="1.0" encoding="UTF-8"?>
<svg xmlns:xlink="http://www.w3.org/1999/xlink" width="175" height="34.359" viewBox="0 0 175 34.359"
     xmlns="http://www.w3.org/2000/svg" id="etc-logo">
    <path id="etc-logo-symbol"
          d="M0 5.296c9.33-9.469 23.484-5.384 27.562 5.482h-6.395C17.49 5.113 9.179 3.51 3.476 9.946zM4.239 23.05h16.614c.897-1.475 1.463-3.226 1.557-5.185H8.166zm24.166 0h1.55l3.67-5.185H29.3a18.562 18.562 0 0 1-.896 5.185zM4.239 11.39h25.717l3.669 5.186H8.165zm24.46 5.797v.026c0 15.432-18.022 22.856-28.691 11.881l3.42-4.612c7.273 8.417 19.608 3.133 19.608-7.204 0-.03 0-.06-.002-.09z"
          clip-rule="evenodd" image-rendering="optimizeQuality" shape-rendering="geometricPrecision"
          text-rendering="geometricPrecision"></path>
    <g id="etc-logo-name-signature">
        <path d="M45.756 21.62c1.162 0 2.049-.3 2.658-.9.608-.6 1.005-1.49 1.19-2.671H44.15c-.203 0-.35-.022-.442-.07-.092-.046-.14-.188-.14-.433V14.51c0-.246.042-.398.126-.462.082-.065.235-.097.456-.097h5.399c-.094-.568-.25-1.043-.471-1.425a2.977 2.977 0 0 0-.817-.933 3.047 3.047 0 0 0-1.093-.507 5.102 5.102 0 0 0-1.247-.152c-.331 0-.635.008-.913.028-.277.018-.549.054-.817.11-.267.056-.543.124-.829.208-.287.083-.615.18-.983.29-.333.111-.559.134-.679.07-.12-.065-.244-.272-.373-.624l-.86-2.27a3.262 3.262 0 0 1-.151-.456c-.028-.12-.036-.222-.028-.304.01-.084.056-.152.14-.208.082-.056.197-.13.345-.222a9.983 9.983 0 0 1 2.643-.927c.951-.194 1.962-.291 3.032-.291 1.403 0 2.653.217 3.75.65 1.099.434 2.022 1.062 2.769 1.883.747.82 1.315 1.823 1.702 3.004.388 1.18.581 2.52.581 4.014 0 1.44-.161 2.792-.483 4.055-.324 1.264-.84 2.367-1.55 3.308-.711.942-1.638 1.684-2.783 2.229-1.145.544-2.537.817-4.18.817-1.2 0-2.366-.126-3.501-.374-1.136-.25-2.257-.706-3.364-1.37-.204-.112-.314-.24-.332-.388-.02-.147.036-.36.166-.637l1.19-2.49c.129-.315.254-.49.374-.528.12-.036.318 0 .595.112.59.221 1.231.443 1.924.663.692.222 1.509.333 2.45.333zm29.703 3.792c0 .222-.032.374-.097.458-.064.082-.253.124-.567.124h-3.931c-.424 0-.637-.194-.637-.582v-7.307h-6.145v7.307c0 .222-.032.374-.098.458-.064.082-.254.124-.567.124h-3.93c-.425 0-.637-.194-.637-.582V7.198c0-.388.212-.582.637-.582h3.93c.313 0 .503.042.567.124.066.084.098.236.098.458v6.532h6.145V7.198c0-.388.213-.582.637-.582h3.931c.314 0 .503.042.567.124.065.084.097.236.097.458zm18.603-.054c0 .424-.175.636-.527.636h-8.554c-1.106 0-2.006-.157-2.698-.47-.692-.314-1.237-.725-1.633-1.233a4.344 4.344 0 0 1-.817-1.702 8.076 8.076 0 0 1-.221-1.855v-8.858c0-.665.092-1.315.277-1.952.184-.637.484-1.2.9-1.688.415-.49.964-.882 1.647-1.176.682-.296 1.512-.444 2.491-.444h8.166c.222 0 .364.032.428.096.066.066.098.254.098.57v3.126c0 .241-.038.402-.11.485-.074.082-.213.124-.416.124h-6.588c-.37 0-.665.052-.886.154-.222.1-.388.225-.498.373a1.192 1.192 0 0 0-.222.498 2.76 2.76 0 0 0-.056.553v1.163h7.42c.221 0 .363.038.429.112.064.073.096.267.096.58v2.88c0 .423-.176.637-.525.637h-7.42v2.075c0 .35.042.628.124.831.084.202.2.354.348.456.147.102.322.166.525.194a4.9 4.9 0 0 0 .665.042h7.03c.222 0 .366.032.43.097.065.064.097.254.097.568zm8.277.082c0 .222-.032.37-.096.443-.066.074-.254.11-.568.11h-3.931c-.425 0-.637-.183-.637-.553V8.444c0-.5.11-.929.332-1.288.221-.36.71-.54 1.468-.54h7.031c1.089 0 2.052.156 2.893.471.84.314 1.545.752 2.117 1.315a5.611 5.611 0 0 1 1.301 1.98c.296.755.443 1.576.443 2.463 0 .295-.027.663-.083 1.107-.055.443-.17.905-.346 1.384-.176.48-.43.965-.761 1.454-.332.488-.78.927-1.343 1.315-.563.387-1.264.7-2.103.94-.84.24-1.842.36-3.004.36h-2.713zm4.956-12.235c0-.184-.028-.402-.084-.651a1.95 1.95 0 0 0-.29-.678 1.752 1.752 0 0 0-.595-.526c-.26-.147-.591-.221-.997-.221h-2.99v4.18h2.99c.645 0 1.135-.217 1.467-.65.331-.435.499-.92.499-1.454zM120.83 25.44c0 .222-.032.37-.098.443-.064.074-.253.11-.567.11h-3.93c-.425 0-.637-.183-.637-.553V11.876c0-.665.092-1.315.276-1.952.185-.637.485-1.2.9-1.688.416-.49.965-.882 1.647-1.176.683-.296 1.514-.444 2.493-.444h8.414c.222 0 .365.032.43.096.064.066.097.254.097.57v3.126c0 .241-.038.402-.112.485-.073.082-.211.124-.415.124h-6.838c-.368 0-.663.052-.885.154-.222.1-.388.225-.498.373a1.192 1.192 0 0 0-.221.498 2.76 2.76 0 0 0-.056.553zm23.198-10.491l-2.492 4.097-3.764 5.703a6.306 6.306 0 0 1-.5.663 1.576 1.576 0 0 1-.469.374c-.166.084-.36.14-.581.166-.222.028-.49.042-.803.042h-1.301c-.83 0-1.376-.208-1.634-.624-.258-.414-.387-.935-.387-1.562V7.198c0-.388.212-.582.637-.582h3.792c.313 0 .503.042.567.124.065.084.098.236.098.458v10.52h.193l2.436-3.822 3.82-6.033c.185-.296.35-.527.498-.693.148-.166.304-.29.472-.374.166-.084.36-.134.581-.152.22-.018.488-.028.802-.028h1.302c.775 0 1.304.148 1.592.444.285.294.428.875.428 1.744v16.608c0 .388-.212.582-.636.582h-3.793c-.314 0-.504-.042-.568-.124-.064-.084-.096-.236-.096-.458V14.95zm9.717 5.066c.166-.72.414-1.32.747-1.8.332-.48.923-.83 1.772-1.051v-.056c-.573-.166-1.053-.411-1.44-.733a3.902 3.902 0 0 1-.927-1.109 4.748 4.748 0 0 1-.5-1.342c-.1-.48-.151-.969-.151-1.467 0-.886.138-1.684.415-2.395a4.93 4.93 0 0 1 1.247-1.84c.553-.517 1.24-.914 2.061-1.19.821-.278 1.776-.416 2.865-.416h7.06c.757 0 1.246.162 1.466.484.222.323.333.77.333 1.344V25.44c0 .37-.213.554-.637.554h-3.931c-.314 0-.503-.037-.567-.11-.065-.074-.097-.222-.097-.444V18.41h-1.8c-.774 0-1.333.18-1.675.54-.34.36-.613.936-.815 1.73l-1.109 4.623a.905.905 0 0 1-.234.416c-.102.092-.222.16-.361.207a1.39 1.39 0 0 1-.442.069h-4.305c-.221 0-.337-.055-.345-.166-.01-.11.013-.296.068-.554zm4.899-7.308c0 .535.167.935.499 1.203.331.268.719.401 1.162.401h3.156V11.13h-3.156c-.609 0-1.038.166-1.288.497a1.77 1.77 0 0 0-.373 1.08z"
              clip-rule="evenodd" image-rendering="optimizeQuality" shape-rendering="geometricPrecision"
              text-rendering="geometricPrecision" id="etc-logo-name"></path>
        <path d="M42.178 30.25h-.029a1.001 1.001 0 0 0-.058.136c-.031.081-.066.168-.104.261l-.103.264-.053.14a5.05 5.05 0 0 1-.07.173l-.12.293-.143.354c-.051.126-.1.243-.148.354l-.122.293-.07.167a.44.44 0 0 1-.106.184c-.039.034-.105.05-.194.05h-.194c-.089 0-.156-.016-.196-.05a.4.4 0 0 1-.109-.184c-.011-.032-.036-.09-.072-.173-.038-.083-.078-.18-.124-.29l-.147-.351a37.468 37.468 0 0 1-.146-.351c-.046-.109-.087-.207-.124-.29-.036-.084-.062-.141-.073-.173l-.3-.749h-.034V33.3c0 .043-.009.07-.024.082-.015.011-.043.017-.086.017h-.289a.162.162 0 0 1-.085-.017c-.017-.012-.026-.039-.026-.082v-3.712c0-.09.019-.16.058-.214.04-.053.116-.08.229-.08h.157c.087 0 .15.016.197.045.044.03.086.092.125.19l.807 2.002c.007.017.028.068.06.156l.112.287c.04.103.078.198.111.286.034.088.053.14.062.156h.023c.005-.017.024-.067.059-.153a22.555 22.555 0 0 0 .219-.556 1.93 1.93 0 0 1 .061-.152l.088-.22c.042-.107.092-.23.15-.371.055-.141.116-.29.18-.448l.179-.442.14-.354c.038-.1.063-.163.076-.191.039-.098.082-.16.128-.19a.366.366 0 0 1 .194-.044h.157c.118 0 .194.026.23.08a.361.361 0 0 1 .056.213V33.3c0 .043-.007.07-.022.082-.017.011-.045.017-.088.017h-.288c-.04 0-.067-.006-.084-.017-.018-.012-.027-.039-.027-.082zm4.123 3.026c0 .043-.007.074-.021.094-.014.02-.043.029-.09.029h-1.63c-.19 0-.349-.027-.476-.08a.807.807 0 0 1-.304-.218.785.785 0 0 1-.162-.317 1.56 1.56 0 0 1-.046-.386v-2.097c0-.132.017-.259.052-.383a.857.857 0 0 1 .173-.322.87.87 0 0 1 .308-.219c.124-.054.277-.082.456-.082h1.599c.043 0 .07.01.085.03.014.019.02.05.02.093v.246c0 .042-.006.073-.02.09-.014.018-.042.027-.085.027h-1.592c-.165 0-.283.037-.356.108-.07.072-.107.185-.107.337v.761h1.861c.043 0 .073.01.085.03.014.019.021.05.021.093v.223a.151.151 0 0 1-.02.088c-.013.02-.043.029-.086.029h-1.861v1.02c0 .132.035.237.105.317.07.08.19.12.358.12h1.621c.048 0 .077.011.09.03.015.019.022.05.022.094zm1.381-2.102a.767.767 0 0 1-.316-.287 1.534 1.534 0 0 1-.182-.44l-.252-1.046a.133.133 0 0 1-.003-.071c.007-.027.031-.04.074-.04h.322c.02 0 .04.003.062.01.02.009.036.03.043.065l.263 1.013c.037.128.081.233.136.31a.6.6 0 0 0 .38.26c.07.014.138.021.205.021h.655v-1.58c-.003-.04.002-.064.016-.073.014-.01.037-.016.073-.016h.345c.032 0 .056.006.07.016.016.01.025.033.025.072v1.581h.66c.063 0 .13-.007.2-.02a.6.6 0 0 0 .38-.26c.055-.078.1-.183.136-.311l.263-1.013c.007-.035.022-.056.043-.065a.197.197 0 0 1 .062-.01h.327c.043 0 .068.013.074.04a.133.133 0 0 1-.003.07l-.258 1.048a1.388 1.388 0 0 1-.178.439.796.796 0 0 1-.314.287v.03a.945.945 0 0 1 .253.116.803.803 0 0 1 .275.37c.027.074.052.156.076.245l.362 1.36c.009.019.009.041.003.066-.005.025-.032.038-.078.038h-.358a.169.169 0 0 1-.062-.011c-.02-.009-.036-.03-.043-.064l-.357-1.307a1.145 1.145 0 0 0-.111-.277.53.53 0 0 0-.37-.26 1.296 1.296 0 0 0-.269-.024h-.713v1.855c0 .04-.009.064-.024.074a.136.136 0 0 1-.071.014h-.339c-.036 0-.061-.004-.077-.014-.015-.01-.023-.035-.023-.074l.005-1.855h-.714c-.101 0-.19.007-.269.023a.524.524 0 0 0-.207.088.579.579 0 0 0-.16.173 1.087 1.087 0 0 0-.114.277l-.35 1.307c-.012.034-.027.055-.047.064a.146.146 0 0 1-.058.01h-.357c-.048 0-.076-.012-.083-.037a.092.092 0 0 1 0-.067l.369-1.359a2.57 2.57 0 0 1 .076-.245.9.9 0 0 1 .109-.205.715.715 0 0 1 .166-.165.945.945 0 0 1 .252-.117zm5.81.697c-.02.16-.041.294-.062.402a2.73 2.73 0 0 1-.071.277 1.198 1.198 0 0 1-.083.2c-.029.054-.06.108-.096.164h2.06V29.78h-1.485zm-.722 1.528l-.058.873c-.004.058-.03.087-.077.087h-.286c-.023 0-.041-.005-.053-.016-.012-.013-.019-.037-.023-.071l-.077-1.137a.219.219 0 0 1 .04-.146c.028-.039.081-.061.16-.07l.188-.012c.065-.074.12-.154.166-.24.044-.085.083-.181.114-.287.032-.105.057-.223.08-.354.02-.13.043-.282.066-.453l.24-1.868a.65.65 0 0 1 .114-.301c.057-.073.154-.11.29-.11h1.762c.13 0 .222.031.28.091.056.062.084.154.084.28v3.254l.2.012a.238.238 0 0 1 .146.058c.039.036.058.092.058.17l-.07 1.113c-.005.034-.012.058-.024.07-.011.012-.03.017-.052.017h-.287a.068.068 0 0 1-.047-.016c-.012-.013-.017-.037-.017-.071l-.036-.873zm5.51-.597c-.055.141-.112.258-.173.352a.73.73 0 0 1-.471.33 1.475 1.475 0 0 1-.328.032c-.05 0-.117-.003-.2-.011a1.327 1.327 0 0 1-.257-.053c-.04-.011-.063-.024-.073-.035-.01-.011-.01-.03-.002-.059l.058-.292c.007-.03.018-.049.032-.053a.174.174 0 0 1 .067 0c.087.012.159.02.218.026a.98.98 0 0 0 .168.003.546.546 0 0 0 .28-.08c.076-.048.14-.14.196-.277l.157-.41h-.093a.412.412 0 0 1-.16-.026c-.041-.018-.083-.077-.122-.179l-1.129-2.705c-.02-.046 0-.07.059-.07h.41c.038 0 .065.008.077.024a.148.148 0 0 1 .032.058l.617 1.528.403 1.019h.041l.392-1.06.569-1.5c.011-.03.025-.05.043-.058a.206.206 0 0 1 .074-.011h.368c.032 0 .052.008.059.024.008.015.008.033 0 .053zm4.427-3.401c0-.043.009-.071.027-.082.016-.013.044-.019.083-.019h.317c.043 0 .072.006.088.019.015.01.023.039.023.082V33.3c0 .043-.008.07-.023.082-.016.011-.045.017-.088.017h-.317c-.039 0-.067-.006-.083-.017-.018-.012-.027-.039-.027-.082v-1.828h-2.062V33.3c0 .043-.007.07-.023.082-.016.011-.046.017-.088.017h-.326a.178.178 0 0 1-.084-.017c-.02-.012-.03-.039-.03-.082v-3.9c0-.042.01-.07.03-.081a.162.162 0 0 1 .084-.019h.326c.042 0 .072.006.088.019.016.01.023.039.023.082v1.603h2.062zm4.046 3.998a.242.242 0 0 1-.085-.011c-.021-.009-.04-.034-.056-.077l-.293-.86h-1.65l-.293.86c-.02.059-.061.088-.124.088h-.397c-.04 0-.065-.01-.074-.032a.122.122 0 0 1-.003-.078l1.323-3.766c.032-.093.067-.154.106-.184.039-.029.103-.046.194-.05h.175c.105 0 .176.017.214.053a.455.455 0 0 1 .101.181l1.319 3.766a.095.095 0 0 1 .003.075c-.01.024-.035.035-.074.035zm-.979-2.646l-.274-.862h-.03l-.263.833-.399 1.253h1.36zm1.969-1.165c0-.102.02-.177.064-.226.043-.049.118-.073.227-.073h1.362c.183 0 .351.03.506.088.153.059.286.14.397.248.11.108.197.237.26.388.062.149.093.315.093.493 0 .106-.017.232-.053.375a1.13 1.13 0 0 1-.592.737c-.17.091-.387.136-.652.136H68.27V33.3c0 .043-.009.07-.024.082-.016.011-.045.017-.088.017h-.304a.162.162 0 0 1-.085-.017c-.018-.012-.026-.039-.026-.082zm2.358.948a.925.925 0 0 0-.037-.254.632.632 0 0 0-.131-.24.731.731 0 0 0-.258-.183 1.013 1.013 0 0 0-.41-.072h-.99v1.493h1.001c.277 0 .484-.066.62-.197.137-.13.205-.313.205-.547zm4.55.797c0 .686-.147 1.213-.441 1.58-.296.367-.734.551-1.315.551-.579 0-1.01-.182-1.296-.545-.288-.363-.431-.883-.431-1.564 0-.339.043-.64.13-.903.089-.264.21-.485.365-.665.153-.18.337-.317.55-.41a1.7 1.7 0 0 1 .693-.14c.286 0 .537.047.756.143.219.096.401.234.548.415.146.182.256.402.33.66.074.256.112.549.112.878zm-.55.022c0-.214-.017-.42-.05-.617a1.545 1.545 0 0 0-.182-.524.986.986 0 0 0-.36-.363 1.144 1.144 0 0 0-.585-.135c-.21 0-.393.043-.545.13a1.096 1.096 0 0 0-.378.35c-.099.149-.172.32-.221.515a2.558 2.558 0 0 0-.074.622c0 .241.02.463.058.664.04.202.105.375.197.52a.97.97 0 0 0 .365.344c.154.082.345.122.575.122.225 0 .416-.044.571-.135.153-.089.278-.21.371-.362a1.55 1.55 0 0 0 .2-.522c.038-.195.058-.397.058-.609zm2.102.516c-.02.16-.04.294-.061.402-.023.107-.045.199-.071.277a1.203 1.203 0 0 1-.081.2c-.03.054-.062.108-.098.164h2.062V29.78h-1.487zm-.72 1.528l-.06.873c-.002.058-.028.087-.074.087h-.288c-.023 0-.04-.005-.053-.016-.01-.013-.02-.037-.023-.071l-.076-1.137a.21.21 0 0 1 .038-.146c.03-.039.084-.061.162-.07l.187-.012c.066-.074.12-.154.167-.24.044-.085.082-.181.114-.287.03-.105.057-.223.078-.354.023-.13.045-.282.069-.453l.24-1.868a.634.634 0 0 1 .114-.301c.055-.073.153-.11.29-.11h1.762c.128 0 .221.031.277.091.057.062.085.154.085.28v3.254l.2.012a.238.238 0 0 1 .146.058c.039.036.058.092.058.17l-.07 1.113c-.003.034-.012.058-.023.07-.013.012-.03.017-.053.017h-.287a.062.062 0 0 1-.046-.016c-.013-.013-.018-.037-.018-.071l-.035-.873zm6.623-3.998c0-.043.008-.071.026-.082.017-.013.045-.019.084-.019h.316c.043 0 .073.006.088.019.015.01.024.039.024.082V33.3c0 .043-.009.07-.024.082-.015.011-.045.017-.088.017h-.316c-.04 0-.067-.006-.084-.017-.018-.012-.026-.039-.026-.082v-1.828h-2.062V33.3c0 .043-.007.07-.024.082-.015.011-.045.017-.088.017h-.326a.178.178 0 0 1-.084-.017c-.02-.012-.029-.039-.029-.082v-3.9c0-.042.01-.07.03-.081a.162.162 0 0 1 .083-.019h.326c.043 0 .073.006.088.019.017.01.024.039.024.082v1.603h2.062zm4.045 3.998a.247.247 0 0 1-.085-.011c-.02-.009-.04-.034-.056-.077l-.293-.86h-1.65l-.293.86c-.02.059-.061.088-.122.088h-.4c-.038 0-.063-.01-.073-.032a.122.122 0 0 1-.003-.078l1.324-3.766c.031-.093.066-.154.105-.184.04-.029.103-.046.194-.05h.175c.105 0 .176.017.214.053a.472.472 0 0 1 .103.181l1.317 3.766a.095.095 0 0 1 .003.075c-.01.024-.035.035-.074.035zm-.977-2.646l-.276-.862h-.03l-.263.833-.397 1.253h1.358zm4.245.884h-.838c-.195 0-.364.037-.506.114-.142.077-.246.229-.308.46l-.304 1.118c-.009.035-.022.056-.045.062a.24.24 0 0 1-.061.008h-.38c-.031 0-.052-.007-.062-.02a.085.085 0 0 1-.014-.05v-.03l.322-1.183c.042-.143.103-.267.181-.37a.802.802 0 0 1 .363-.25 1.026 1.026 0 0 1-.504-.404 1.16 1.16 0 0 1-.17-.632c0-.168.03-.323.088-.465.059-.143.142-.265.253-.37.108-.103.24-.184.391-.242a1.41 1.41 0 0 1 .51-.088h1.335c.113 0 .19.024.234.07.043.047.064.12.064.223v3.73c0 .035-.007.057-.022.067a.14.14 0 0 1-.071.014h-.357a.156.156 0 0 1-.077-.014c-.015-.01-.022-.032-.022-.067zm-1.025-1.85a.889.889 0 0 0-.37.067.682.682 0 0 0-.234.167.559.559 0 0 0-.122.226.863.863 0 0 0-.035.237.68.68 0 0 0 .19.49c.126.134.33.2.612.2h.984v-1.387zm4.913-.013h-1.142c-.036 0-.059-.005-.068-.02-.01-.013-.014-.038-.014-.073v-.287c0-.03.004-.055.014-.07.01-.015.032-.024.068-.024h2.869c.035 0 .057.009.067.024.01.015.014.04.014.07v.287c0 .035-.004.06-.014.074-.01.014-.032.02-.067.02h-1.178V33.3c0 .043-.007.07-.022.082-.017.011-.044.017-.083.017h-.334a.166.166 0 0 1-.085-.017c-.017-.012-.025-.039-.025-.082zm2.33-.186c0-.102.021-.177.063-.226.044-.049.12-.073.229-.073h1.362c.183 0 .351.03.505.088.153.059.285.14.397.248.11.108.198.237.26.388.062.149.094.315.094.493 0 .106-.018.232-.053.375-.035.145-.1.282-.195.41-.096.13-.229.238-.397.328-.17.09-.387.135-.653.135h-1.086V33.3c0 .043-.007.07-.024.082-.015.011-.044.017-.087.017h-.304a.166.166 0 0 1-.085-.017c-.017-.012-.027-.039-.027-.082zm2.36.948a.925.925 0 0 0-.038-.254.636.636 0 0 0-.133-.24.719.719 0 0 0-.258-.183 1.004 1.004 0 0 0-.41-.072h-.99v1.493h1.003c.276 0 .484-.066.62-.197.137-.13.205-.313.205-.547zm3.518 2.863a.247.247 0 0 1-.085-.011c-.021-.009-.04-.034-.056-.077l-.293-.86h-1.65l-.293.86c-.02.059-.06.088-.123.088h-.398c-.04 0-.063-.01-.073-.032a.113.113 0 0 1-.003-.078l1.323-3.766c.031-.093.066-.154.105-.184a.36.36 0 0 1 .194-.05h.175c.106 0 .177.017.214.053a.472.472 0 0 1 .103.181l1.317 3.766a.095.095 0 0 1 .003.075c-.01.024-.035.035-.074.035zm-.977-2.646l-.276-.862h-.03l-.263.833-.397 1.253h1.357zm4.578-1.352c0-.043.01-.071.026-.082.018-.013.046-.019.085-.019h.317c.043 0 .072.006.088.019.015.01.023.039.023.082V33.3c0 .043-.008.07-.023.082-.016.011-.045.017-.088.017h-.317a.166.166 0 0 1-.085-.017c-.017-.012-.026-.039-.026-.082v-1.828h-2.06V33.3c0 .043-.009.07-.024.082-.016.011-.046.017-.09.017h-.326a.172.172 0 0 1-.082-.017c-.02-.012-.03-.039-.03-.082v-3.9c0-.042.01-.07.03-.081a.156.156 0 0 1 .082-.019h.326c.044 0 .074.006.09.019.015.01.023.039.023.082v1.603h2.06zm3.14 3.559c.17 0 .334-.02.49-.059.156-.039.302-.089.439-.152.043-.02.075-.02.095-.005.02.015.032.033.04.053l.112.245c.023.047.03.08.023.096a.161.161 0 0 1-.053.056c-.093.056-.195.1-.302.135a2.48 2.48 0 0 1-.322.082 3.8 3.8 0 0 1-.618.053 2.06 2.06 0 0 1-.734-.124 1.353 1.353 0 0 1-.548-.375 1.717 1.717 0 0 1-.342-.637 3.095 3.095 0 0 1-.12-.92c0-.327.042-.624.129-.892.086-.268.207-.496.363-.686.157-.188.345-.334.565-.436.22-.1.463-.152.73-.152.166 0 .34.015.52.044.179.03.369.095.568.196a.098.098 0 0 1 .047.047c.007.02.002.049-.018.088l-.135.269a.124.124 0 0 1-.038.05c-.014.01-.036.007-.067-.008a2.088 2.088 0 0 0-.854-.183c-.223 0-.414.048-.572.14a1.204 1.204 0 0 0-.391.373c-.105.155-.18.332-.226.533-.048.2-.07.407-.07.617 0 .215.02.416.061.604.04.187.11.351.21.492.1.14.232.25.398.333.166.082.372.123.62.123zm4.917.351c0 .04-.007.064-.02.074-.014.01-.038.014-.074.014h-.345a.155.155 0 0 1-.074-.014c-.016-.01-.026-.035-.026-.074v-3.537h-2.06v3.537c0 .04-.008.064-.021.074-.014.01-.038.014-.073.014h-.351a.136.136 0 0 1-.071-.014c-.016-.01-.024-.035-.024-.074v-3.647c0-.125.032-.217.098-.279a.348.348 0 0 1 .248-.09h2.448a.35.35 0 0 1 .255.09c.06.062.09.154.09.28zm4.245-1.978c0 .686-.148 1.213-.442 1.58-.295.367-.733.551-1.314.551-.579 0-1.01-.182-1.298-.545-.286-.363-.43-.883-.43-1.564 0-.339.044-.64.132-.903.087-.264.209-.485.363-.665a1.52 1.52 0 0 1 .55-.41c.213-.093.444-.14.694-.14.286 0 .537.047.755.143.22.096.402.234.548.415.147.182.257.402.33.66.075.256.112.549.112.878zm-.55.022c0-.214-.017-.42-.05-.617a1.576 1.576 0 0 0-.182-.524.986.986 0 0 0-.36-.363 1.144 1.144 0 0 0-.585-.135c-.21 0-.393.043-.545.13a1.096 1.096 0 0 0-.378.35c-.099.149-.173.32-.221.515a2.558 2.558 0 0 0-.074.622c0 .241.02.463.058.664.04.202.105.375.197.52a.97.97 0 0 0 .365.344c.153.082.344.122.574.122.226 0 .417-.044.57-.135.155-.089.28-.21.373-.362a1.58 1.58 0 0 0 .2-.522c.038-.195.058-.397.058-.609zm1.311-1.767c0-.102.021-.177.065-.226.043-.049.118-.073.227-.073h1.362c.182 0 .351.03.506.088.153.059.286.14.397.248.11.108.197.237.26.388.062.149.093.315.093.493 0 .106-.017.232-.053.375-.035.145-.1.282-.195.41-.095.13-.228.238-.396.328-.17.09-.388.135-.653.135h-1.086V33.3c0 .043-.008.07-.023.082-.016.011-.045.017-.088.017h-.304a.162.162 0 0 1-.085-.017c-.018-.012-.027-.039-.027-.082zm2.36.948a.925.925 0 0 0-.038-.254.632.632 0 0 0-.132-.24.731.731 0 0 0-.257-.183 1.013 1.013 0 0 0-.41-.072h-.99v1.493h1c.278 0 .485-.066.621-.197.137-.13.205-.313.205-.547zm2.055-.762h-1.141c-.037 0-.059-.005-.069-.02-.01-.013-.014-.038-.014-.073v-.287c0-.03.005-.055.014-.07.01-.015.032-.024.069-.024h2.869c.034 0 .057.009.067.024.01.015.015.04.015.07v.287c0 .035-.006.06-.015.074-.01.014-.033.02-.067.02h-1.177V33.3c0 .043-.008.07-.024.082-.015.011-.043.017-.082.017h-.333a.162.162 0 0 1-.085-.017c-.018-.012-.027-.039-.027-.082zM127.536 29.4c0-.042.009-.07.027-.081.017-.013.044-.019.083-.019h.317c.043 0 .072.006.088.019.015.01.023.039.023.082V33.3c0 .043-.008.07-.023.082-.016.011-.045.017-.088.017h-.317c-.039 0-.066-.006-.083-.017-.018-.012-.027-.039-.027-.082v-1.828h-2.062V33.3c0 .043-.006.07-.023.082-.016.011-.045.017-.088.017h-.326a.178.178 0 0 1-.084-.017c-.02-.012-.03-.039-.03-.082v-3.9c0-.042.01-.07.03-.081a.162.162 0 0 1 .084-.019h.326c.043 0 .072.006.088.019.017.01.023.039.023.082v1.603h2.062zm4.046 3.999a.242.242 0 0 1-.085-.011c-.021-.009-.04-.034-.056-.077l-.293-.86h-1.65l-.293.86c-.02.059-.061.088-.124.088h-.397c-.04 0-.065-.01-.074-.032a.122.122 0 0 1-.003-.078l1.324-3.766c.03-.093.066-.154.105-.184.039-.029.103-.046.194-.05h.175c.105 0 .176.017.214.053a.472.472 0 0 1 .103.181l1.317 3.766a.095.095 0 0 1 .003.075c-.01.024-.035.035-.074.035zm-.977-2.646l-.276-.862h-.03l-.263.833-.399 1.253h1.36zm4.244.884h-.837c-.195 0-.364.037-.506.114-.144.077-.246.229-.308.46l-.304 1.118c-.009.035-.023.056-.045.062a.24.24 0 0 1-.061.008h-.38c-.032 0-.052-.007-.062-.02a.085.085 0 0 1-.014-.05v-.03l.322-1.183c.042-.143.103-.267.181-.37a.802.802 0 0 1 .363-.25 1.026 1.026 0 0 1-.504-.404 1.16 1.16 0 0 1-.17-.632c0-.168.03-.323.088-.465.059-.143.142-.265.252-.37.11-.103.24-.184.392-.242a1.41 1.41 0 0 1 .51-.088h1.334c.113 0 .191.024.235.07.043.047.064.12.064.223v3.73c0 .035-.007.057-.023.067a.14.14 0 0 1-.07.014h-.358a.156.156 0 0 1-.076-.014c-.016-.01-.023-.032-.023-.067zm-1.024-1.85a.889.889 0 0 0-.37.067.682.682 0 0 0-.234.167.559.559 0 0 0-.122.226.863.863 0 0 0-.035.237.68.68 0 0 0 .19.49c.126.134.33.2.611.2h.984v-1.387zm6.071 1.416a.945.945 0 0 1 .252.117.803.803 0 0 1 .275.37c.028.074.053.156.077.245l.368 1.36a.092.092 0 0 1 0 .066c-.007.025-.032.038-.076.038h-.357a.196.196 0 0 1-.065-.011c-.022-.009-.04-.03-.046-.064l-.351-1.307a1.145 1.145 0 0 0-.112-.277.541.541 0 0 0-.37-.26 1.296 1.296 0 0 0-.268-.024h-.831v1.855c0 .04-.007.064-.021.074-.014.01-.038.014-.073.014h-.34a.143.143 0 0 1-.07-.014c-.016-.01-.023-.035-.023-.074v-3.923c0-.039.007-.063.022-.072a.142.142 0 0 1 .071-.016h.346c.035 0 .059.006.072.016.014.01.02.033.016.072v1.581h.778c.062 0 .13-.007.199-.02a.59.59 0 0 0 .38-.26c.055-.078.101-.183.136-.311l.263-1.013c.007-.035.023-.056.044-.065a.204.204 0 0 1 .06-.01h.323c.047 0 .074.013.08.04a.12.12 0 0 1-.003.07l-.258 1.048a1.5 1.5 0 0 1-.182.436.814.814 0 0 1-.316.29zm4.936.13c0 .686-.147 1.213-.442 1.58-.295.367-.733.551-1.314.551-.579 0-1.01-.182-1.298-.545-.286-.363-.43-.883-.43-1.564 0-.339.044-.64.132-.903.087-.264.209-.485.363-.665.154-.18.338-.317.551-.41a1.7 1.7 0 0 1 .693-.14c.286 0 .537.047.756.143.218.096.401.234.547.415.147.182.257.402.33.66.075.256.112.549.112.878zm-.55.022c0-.214-.017-.42-.05-.617a1.545 1.545 0 0 0-.182-.524.986.986 0 0 0-.36-.363 1.144 1.144 0 0 0-.585-.135c-.21 0-.393.043-.545.13a1.096 1.096 0 0 0-.378.35c-.099.149-.173.32-.221.515a2.558 2.558 0 0 0-.074.622c0 .241.02.463.058.664.04.202.105.375.197.52a.97.97 0 0 0 .365.344c.153.082.344.122.574.122.226 0 .417-.044.572-.135.153-.089.277-.21.37-.362a1.58 1.58 0 0 0 .2-.522c.04-.195.059-.397.059-.609zm4.66-1.105h-.03a1.66 1.66 0 0 0-.058.136c-.03.081-.065.168-.102.261-.037.093-.072.181-.103.264l-.053.14c-.012.031-.035.09-.07.173-.036.084-.075.181-.12.293l-.144.354-.147.354-.122.293c-.037.084-.059.14-.071.167a.425.425 0 0 1-.105.184c-.04.034-.105.05-.195.05h-.193c-.09 0-.156-.016-.198-.05a.412.412 0 0 1-.107-.184 3.986 3.986 0 0 0-.074-.173 9.804 9.804 0 0 1-.122-.29l-.148-.351a37.468 37.468 0 0 1-.147-.351 9.804 9.804 0 0 0-.122-.29 3.986 3.986 0 0 1-.074-.173l-.3-.749h-.035V33.3c0 .043-.007.07-.022.082-.017.011-.045.017-.088.017h-.288c-.04 0-.067-.006-.084-.017-.018-.012-.027-.039-.027-.082v-3.712c0-.09.02-.16.059-.214.039-.053.114-.08.229-.08h.156a.36.36 0 0 1 .196.045c.045.03.087.092.126.19l.807 2.002c.008.017.03.068.061.156.034.088.07.183.112.287.04.103.078.198.11.286.033.088.054.14.061.156h.024c.004-.017.024-.067.059-.153a22.555 22.555 0 0 0 .22-.556c.032-.085.053-.137.06-.152l.088-.22.149-.371.181-.448.18-.442c.053-.137.1-.255.14-.354l.074-.191c.04-.098.083-.16.13-.19a.357.357 0 0 1 .192-.044h.158c.117 0 .194.026.231.08a.361.361 0 0 1 .056.213V33.3c0 .043-.008.07-.024.082-.015.011-.043.017-.086.017h-.29c-.039 0-.067-.006-.084-.017-.016-.012-.026-.039-.026-.082zm4.532 3.061c0 .04-.007.064-.02.074-.013.01-.039.014-.073.014h-.346a.149.149 0 0 1-.073-.014c-.018-.01-.026-.035-.026-.074v-3.537h-2.062v3.537c0 .04-.005.064-.02.074-.013.01-.038.014-.073.014h-.352a.134.134 0 0 1-.07-.014c-.015-.01-.023-.035-.023-.074v-3.647c0-.125.032-.217.096-.279a.354.354 0 0 1 .25-.09h2.446c.11 0 .195.03.255.09.062.062.091.154.091.28zm3.507.088a.247.247 0 0 1-.085-.011c-.02-.009-.039-.034-.055-.077l-.293-.86h-1.65l-.293.86c-.02.059-.06.088-.123.088h-.399c-.039 0-.062-.01-.072-.032a.113.113 0 0 1-.003-.078l1.323-3.766c.03-.093.065-.154.104-.184a.36.36 0 0 1 .194-.05h.176c.106 0 .177.017.213.053a.472.472 0 0 1 .103.181l1.318 3.766a.095.095 0 0 1 .003.075c-.01.024-.035.035-.074.035zm-.977-2.646l-.276-.862h-.03l-.263.833-.397 1.253h1.358zm4.578-1.352c0-.043.01-.071.027-.082.018-.013.046-.019.085-.019h.316c.044 0 .073.006.088.019.015.01.024.039.024.082V33.3c0 .043-.009.07-.024.082-.015.011-.044.017-.088.017h-.316a.166.166 0 0 1-.085-.017c-.017-.012-.027-.039-.027-.082v-1.828h-2.06V33.3c0 .043-.008.07-.024.082-.015.011-.046.017-.089.017h-.326a.172.172 0 0 1-.082-.017c-.02-.012-.03-.039-.03-.082v-3.9c0-.042.01-.07.03-.081a.156.156 0 0 1 .082-.019h.326c.043 0 .074.006.09.019.015.01.023.039.023.082v1.603h2.06zm4.058.62l-.508.878-1.36 2.266a.81.81 0 0 1-.133.182c-.04.035-.102.052-.189.052h-.164c-.109 0-.184-.024-.225-.073-.041-.048-.06-.122-.06-.22v-3.723c0-.04.006-.063.021-.073a.142.142 0 0 1 .071-.015h.346c.035 0 .059.005.073.015.014.01.02.034.02.073v3.273h.017l.476-.803 1.4-2.324a.765.765 0 0 1 .133-.181c.04-.035.102-.053.188-.053h.163c.113 0 .19.025.23.074.038.049.058.121.058.219v3.723c0 .04-.009.064-.024.074a.134.134 0 0 1-.07.014h-.345c-.035 0-.06-.004-.074-.014-.013-.01-.02-.035-.02-.074v-3.29zm3.713 1.616h-.838c-.195 0-.364.037-.506.114-.142.077-.245.229-.308.46l-.304 1.118c-.008.035-.022.056-.043.062a.26.26 0 0 1-.063.008h-.38c-.031 0-.052-.007-.062-.02a.085.085 0 0 1-.014-.05v-.03l.322-1.183c.043-.143.103-.267.181-.37a.802.802 0 0 1 .363-.25 1.026 1.026 0 0 1-.503-.404 1.16 1.16 0 0 1-.17-.632c0-.168.029-.323.087-.465.059-.143.144-.265.253-.37.108-.103.24-.184.391-.242.154-.059.322-.088.51-.088h1.335c.114 0 .192.024.234.07.043.047.065.12.065.223v3.73c0 .035-.008.057-.023.067a.136.136 0 0 1-.071.014h-.357c-.035 0-.06-.004-.076-.014s-.023-.032-.023-.067zm-1.025-1.85a.889.889 0 0 0-.37.067.682.682 0 0 0-.233.167.559.559 0 0 0-.123.226.863.863 0 0 0-.035.237.68.68 0 0 0 .19.49c.126.134.331.2.612.2h.984v-1.387z"
              fill-rule="nonzero" id="etc-logo-signature"></path>
    </g>
</svg>