<?xml version="1.0" encoding="UTF-8" ?>
<!DOCTYPE svg PUBLIC "-//W3C//DTD SVG 1.1//EN" "http://www.w3.org/Graphics/SVG/1.1/DTD/svg11.dtd">
<svg width="710pt" height="432pt" viewBox="0 0 710 432" version="1.1" xmlns="http://www.w3.org/2000/svg">
    <g id="#fc1f14ff">
        <path fill="#fc1f14" opacity="1.00"
              d=" M 145.52 55.47 C 156.82 50.80 164.89 66.44 156.03 74.08 C 161.66 88.13 168.89 102.52 180.78 112.38 C 189.06 103.65 189.62 90.94 189.16 79.60 C 180.41 75.87 183.25 61.02 193.01 61.76 C 201.59 61.25 204.89 72.86 198.94 78.17 C 201.19 87.70 205.75 97.33 213.10 104.05 C 214.31 104.03 215.51 104.02 216.72 104.00 C 222.65 97.80 221.23 88.27 222.48 80.40 C 213.83 75.84 216.00 61.59 226.10 61.06 C 237.07 60.09 240.74 76.23 230.59 80.62 C 231.98 103.48 231.23 126.60 226.03 148.98 C 189.91 130.04 141.13 142.32 119.01 176.77 C 103.55 157.91 91.70 136.28 82.79 113.63 C 72.86 113.73 66.43 100.51 75.53 94.50 C 85.51 88.02 95.37 100.80 90.20 110.30 C 95.11 117.19 100.94 124.11 109.37 126.60 C 110.79 116.66 109.39 106.67 108.86 96.73 C 101.69 93.98 100.01 82.75 107.57 79.49 C 116.08 75.19 123.90 86.51 118.15 93.62 C 123.01 104.80 133.63 112.15 144.76 116.25 C 150.43 103.51 149.23 89.17 146.86 75.80 C 137.49 73.20 135.91 58.89 145.52 55.47 Z"/>
        <path fill="#fc1f14" opacity="1.00"
              d=" M 337.16 79.26 C 356.51 59.37 391.91 62.94 405.52 87.61 C 416.14 90.70 427.75 96.63 431.61 107.74 C 453.79 106.94 475.04 124.76 477.20 147.02 C 481.88 149.34 486.29 152.17 490.63 155.07 C 530.98 127.76 591.56 147.97 608.97 193.00 C 621.27 221.30 614.83 256.24 593.58 278.53 C 567.16 307.91 517.93 314.52 485.77 290.96 C 470.06 298.67 453.73 306.31 436.08 307.96 C 417.12 308.34 398.24 302.07 382.94 290.93 C 363.33 309.96 329.37 310.22 309.97 290.77 C 288.78 311.84 254.06 308.84 230.23 294.08 C 192.07 317.51 137.25 301.74 117.36 261.67 C 100.05 230.31 107.58 188.12 134.50 164.55 C 158.95 141.20 197.78 137.03 227.55 152.28 C 235.67 145.93 245.49 142.14 255.58 140.33 C 259.32 119.58 279.39 104.74 300.21 105.92 C 304.04 88.80 322.84 83.83 337.16 79.26 M 347.39 81.41 C 339.43 91.02 325.74 88.82 316.30 96.26 C 309.70 99.88 308.43 107.66 305.59 113.94 C 284.67 110.80 263.03 125.77 262.60 147.76 C 249.94 148.65 237.45 153.38 228.13 162.14 C 206.97 148.96 178.96 147.42 156.67 158.72 C 130.71 171.29 113.84 200.36 116.49 229.18 C 117.78 262.34 145.30 291.65 178.02 296.07 C 196.30 298.91 215.40 294.52 230.79 284.30 C 253.62 302.17 291.11 303.75 310.09 279.39 C 326.94 302.48 365.24 303.17 382.09 279.76 C 396.94 293.19 417.05 300.54 437.05 299.76 C 454.61 297.40 471.00 289.83 486.28 281.17 C 510.84 302.61 550.19 301.54 576.20 283.23 C 611.90 259.66 617.57 204.03 587.13 173.89 C 562.82 147.33 518.68 143.04 490.05 165.13 C 483.83 159.58 476.53 155.47 469.07 151.85 C 470.35 129.24 446.81 112.57 425.55 115.80 C 424.18 103.77 412.33 96.98 401.42 95.18 C 391.20 75.92 365.41 67.00 347.39 81.41 Z"/>
        <path fill="#fc1f14" opacity="1.00"
              d=" M 352.80 102.86 C 356.81 93.39 372.03 94.05 374.75 104.27 C 375.61 117.12 374.83 130.07 375.13 142.96 C 393.52 142.80 411.77 140.42 429.95 137.97 C 437.30 136.46 445.12 143.20 443.76 150.78 C 443.82 158.31 435.22 161.09 429.01 161.92 C 411.23 165.43 393.12 166.20 375.08 167.11 C 374.94 198.05 375.45 229.02 374.86 259.94 C 372.14 272.88 351.34 270.34 351.88 257.04 C 351.66 226.74 351.88 196.42 351.77 166.12 C 349.63 166.07 347.49 166.04 345.36 166.02 C 346.23 196.59 346.15 227.32 345.55 257.91 C 345.06 271.49 323.73 272.09 322.27 258.69 C 321.48 227.31 322.23 195.84 321.91 164.42 C 309.51 163.86 296.46 162.73 285.39 156.70 C 276.66 150.88 281.70 135.97 291.98 136.07 C 301.98 137.34 311.93 139.17 321.96 140.24 C 322.89 131.23 319.00 119.65 326.92 112.92 C 333.72 107.05 344.87 112.46 345.68 121.06 C 346.10 128.31 344.98 135.67 345.96 142.93 C 347.90 142.94 349.85 142.96 351.80 142.98 C 352.35 129.63 350.60 116.07 352.80 102.86 Z"/>
        <path fill="#fc1f14" opacity="1.00"
              d=" M 141.57 198.53 C 152.12 179.42 177.26 167.49 198.19 175.69 C 208.60 181.88 203.51 199.97 191.09 199.15 C 179.65 197.02 166.87 202.42 162.79 213.81 C 156.05 228.32 167.92 247.03 183.93 247.04 C 197.81 248.58 210.58 235.88 209.70 222.07 C 209.32 193.48 237.83 168.78 266.07 173.59 C 290.32 176.43 310.36 199.47 309.08 223.99 C 309.41 250.81 284.17 274.33 257.55 272.63 C 245.84 271.80 234.60 266.82 225.57 259.41 C 231.80 252.37 235.96 243.83 238.42 234.81 C 248.36 252.83 277.94 251.99 284.74 231.81 C 290.44 217.12 280.09 198.69 263.96 197.74 C 248.43 195.37 233.56 209.49 234.81 225.09 C 234.09 256.20 200.25 280.60 170.60 270.55 C 141.07 262.60 125.28 224.77 141.57 198.53 Z"/>
        <path fill="#fc1f14" opacity="1.00"
              d=" M 432.34 173.27 C 463.83 168.54 493.80 199.83 487.31 231.09 C 484.04 252.03 466.07 269.69 444.99 272.27 C 418.88 276.79 391.83 256.30 388.71 230.04 C 383.93 203.23 405.40 175.90 432.34 173.27 M 434.37 197.40 C 421.03 198.82 410.55 212.29 412.44 225.60 C 413.40 239.64 427.50 250.63 441.35 248.46 C 456.90 247.17 467.71 229.85 462.79 215.17 C 459.29 203.33 446.58 195.31 434.37 197.40 Z"/>
        <path fill="#fc1f14" opacity="1.00"
              d=" M 439.64 316.63 C 445.41 315.53 451.09 312.11 457.08 313.57 C 460.10 321.36 454.64 328.61 450.07 334.43 C 450.05 335.10 450.02 336.45 450.00 337.12 C 452.09 336.69 454.19 336.21 456.30 335.81 C 457.24 336.90 458.20 338.00 459.17 339.09 C 459.15 346.66 454.92 353.27 450.80 359.30 C 454.57 362.85 459.58 361.68 462.72 357.97 C 463.73 345.21 481.84 328.66 492.97 340.32 C 496.54 338.61 499.99 336.57 503.85 335.55 C 503.08 345.22 494.47 355.12 499.01 364.52 C 502.65 362.74 505.75 360.12 508.69 357.36 C 513.26 339.89 516.51 312.62 539.69 312.57 C 546.22 319.44 538.85 328.67 534.24 334.44 C 534.17 335.12 534.04 336.48 533.97 337.17 C 536.12 336.75 538.26 336.27 540.41 335.83 C 541.30 336.68 542.19 337.53 543.10 338.38 C 544.04 346.39 538.77 352.87 535.51 359.66 C 539.23 362.98 543.90 361.33 546.84 357.94 C 548.34 351.09 551.26 344.70 553.82 338.21 C 558.11 337.62 562.35 336.67 566.64 336.00 C 563.29 345.32 557.07 354.16 558.03 364.50 C 570.53 363.67 571.85 347.25 576.66 338.21 C 580.68 337.56 584.65 336.67 588.67 335.99 C 585.37 346.53 581.16 356.77 577.89 367.32 C 583.71 365.05 588.78 361.33 593.35 357.13 C 593.43 358.68 593.51 360.24 593.59 361.80 C 588.50 366.43 582.17 369.24 576.07 372.25 C 573.03 382.25 562.83 396.96 551.08 389.63 C 547.90 380.20 557.95 374.21 565.39 371.48 C 566.41 369.30 567.05 366.97 567.66 364.65 C 561.80 370.81 548.17 375.51 546.61 363.24 C 542.34 365.58 537.23 365.29 533.41 362.20 C 527.65 370.90 510.97 377.32 508.19 362.82 C 502.47 371.24 485.70 377.03 486.69 361.32 C 481.98 371.05 465.81 377.28 462.49 363.11 C 458.16 365.86 453.44 364.78 449.01 363.04 C 443.66 366.18 439.26 372.74 432.16 371.82 C 425.23 370.79 422.92 362.57 424.39 356.55 C 427.10 342.53 432.27 328.88 439.64 316.63 M 441.84 337.61 C 447.85 332.66 454.18 325.77 453.86 317.46 C 445.49 319.32 443.42 330.33 441.84 337.61 M 533.91 318.50 C 530.12 324.32 527.13 330.73 525.76 337.57 C 532.15 333.04 538.36 325.87 538.01 317.58 C 536.63 317.86 535.27 318.18 533.91 318.50 M 437.90 346.55 C 436.87 352.32 433.51 358.63 437.07 364.17 C 451.90 364.59 441.27 346.67 448.00 338.56 C 443.71 339.85 441.12 343.73 437.90 346.55 M 521.37 364.10 C 525.44 364.94 528.53 362.36 531.05 359.52 C 526.57 352.78 530.47 345.34 532.27 338.51 C 522.35 342.07 517.29 354.82 521.37 364.10 M 483.31 340.24 C 476.60 344.69 472.61 354.46 474.75 362.25 C 484.85 369.24 496.72 339.01 483.31 340.24 M 554.16 388.42 C 560.76 389.12 562.72 381.61 564.27 376.70 C 558.46 377.09 552.83 382.24 554.16 388.42 Z"/>
    </g>
    <g id="#fc2014ff">
        <path fill="#fc2014" opacity="1.00"
              d=" M 500.15 188.03 C 500.76 175.25 519.07 172.72 523.42 184.61 C 540.54 175.23 563.57 180.22 575.59 195.49 C 590.70 215.18 590.10 244.57 575.05 264.13 C 567.48 274.83 548.90 264.17 555.21 252.33 C 563.16 242.19 566.26 228.33 561.97 215.99 C 556.52 199.73 527.69 199.02 523.81 216.85 C 521.91 231.41 523.85 246.27 522.87 260.92 C 519.82 271.24 502.90 270.67 500.90 259.99 C 500.67 236.01 499.47 212.02 500.15 188.03 Z"/>
    </g>
</svg>
